<?xml version="1.0" encoding="UTF-8"?>
<svg width="328px" height="274px" viewBox="0 0 328 274" version="1.1" xmlns="http://www.w3.org/2000/svg" xmlns:xlink="http://www.w3.org/1999/xlink">
    <title>Illustration / Empty Bookmarks</title>
    <g id="Illustration-/-Empty-Bookmarks" stroke="none" stroke-width="1" fill="none" fill-rule="evenodd">
        <g id="undraw_save_to_bookmarks_y708" transform="translate(1.000000, 0.000000)" fill-rule="nonzero">
            <path d="M324.979384,212.835033 C324.911038,214.516109 323.21175,249.217316 299.89994,268.17838 C298.925002,268.971077 297.912097,269.734921 296.861227,270.469912 L296.068532,269.695456 L296.528667,269.695456 C297.660862,269.695361 298.578664,268.777559 298.578759,267.645364 L298.578759,199.2452 C299.066228,196.621076 299.526363,194.042529 299.945487,191.532298 C302.218807,177.887797 303.271183,166.36173 301.567334,161.573626 C302.305365,163.423263 317.120704,201.254271 309.075215,239.800569 C317.043285,228.88952 324.605812,217.436337 324.979384,212.835033 Z" id="Path" fill="#333333"></path>
            <path d="M295.977791,4.20484886 L15.281323,4.20484886 C13.3952171,4.20484886 11.8645035,5.73556249 11.8645035,7.62166844 L11.8645035,267.7555 C11.8645035,269.64227 13.3945533,271.172321 15.281323,271.172321 L295.977791,271.172321 C297.65886,271.172321 299.090017,269.949494 299.349064,268.288503 C299.380418,268.112585 299.394661,267.934174 299.394661,267.755487 L299.394661,7.62167284 C299.394661,5.73556517 297.863898,4.20484886 295.977791,4.20484886 Z M298.027882,267.755496 C298.027882,268.887691 297.109986,269.805588 295.977791,269.805588 L15.281323,269.805588 C14.1491279,269.805588 13.2312313,268.887691 13.2312313,267.755496 L13.2312313,7.62167284 C13.2312313,6.49014144 14.1497917,5.57158109 15.281323,5.57158109 L295.977791,5.57158109 C297.109322,5.57158109 298.027882,6.49014144 298.027882,7.62167284 L298.027882,267.755496 Z" id="Shape" fill="#E6E6E6"></path>
            <path d="M164.962492,29.9154036 C164.390667,29.9154036 163.925514,30.9079873 163.925514,32.1281933 L163.925514,123.590233 C163.925514,124.810435 164.390667,125.803023 164.962492,125.803023 L264.167081,125.803023 C264.738906,125.803023 265.204063,124.810435 265.204063,123.590233 L265.204063,32.1281933 C265.204063,30.9079873 264.738906,29.9154036 264.167081,29.9154036 L164.962492,29.9154036 Z" id="Path" fill="#E6E6E6"></path>
            <path d="M47.7761265,29.7392343 C46.8750895,29.7545169 46.1526566,30.4893069 46.1526566,31.3904735 C46.1526566,32.2916402 46.8750895,33.0264302 47.7761265,33.0417128 L125.62403,33.0417128 C126.215593,33.0539423 126.768495,32.7487628 127.073431,32.2417028 C127.378367,31.7346429 127.388735,31.1031935 127.10061,30.586396 C126.812485,30.0695985 126.269899,29.746432 125.678254,29.7392343 C125.660178,29.7389411 125.642103,29.7389411 125.62403,29.7392343 L47.7761265,29.7392343 Z" id="ed9c03b2-1449-4b71-9e3b-3c62ff7f07bc" fill="#E6E6E6"></path>
            <path d="M47.7761265,45.228815 C46.8750895,45.2440975 46.1526566,45.9788875 46.1526566,46.8800542 C46.1526566,47.7812208 46.8750895,48.5160108 47.7761265,48.5312934 L125.62403,48.5312934 C126.215593,48.543523 126.768495,48.2383434 127.073431,47.7312835 C127.378367,47.2242235 127.388735,46.5927742 127.10061,46.0759767 C126.812485,45.5591792 126.269899,45.2360127 125.678254,45.228815 C125.660178,45.2285218 125.642103,45.2285218 125.62403,45.228815 L47.7761265,45.228815 Z" id="ac2fe172-b9d2-4839-b8ea-2891040e5ba3" fill="#E6E6E6"></path>
            <path d="M47.7761265,60.7183956 C46.8750895,60.7336782 46.1526566,61.4684682 46.1526566,62.3696348 C46.1526566,63.2708015 46.8750895,64.0055915 47.7761265,64.0208741 L125.62403,64.0208741 C126.215593,64.0331036 126.768495,63.7279241 127.073431,63.2208641 C127.378367,62.7138042 127.388735,62.0823548 127.10061,61.5655573 C126.812485,61.0487598 126.269899,60.7255933 125.678254,60.7183956 C125.660178,60.7181024 125.642103,60.7181024 125.62403,60.7183956 L47.7761265,60.7183956 Z" id="a98745e5-eae5-4ee7-991c-f32673123033" fill="#E6E6E6"></path>
            <path d="M47.7761265,76.2079718 C46.8750377,76.2231844 46.1525267,76.957996 46.1525267,77.8592133 C46.1525267,78.7604305 46.8750377,79.4952422 47.7761265,79.5104547 L125.62403,79.5104547 C126.533513,79.5218152 127.280979,78.79565 127.296139,77.8862189 C127.310844,76.9767879 126.587619,76.2264753 125.678254,76.2079718 C125.660178,76.2076786 125.642103,76.2076786 125.62403,76.2079718 L47.7761265,76.2079718 Z" id="bf8b9df3-8875-4369-b4ec-4c359de04021" fill="#E6E6E6"></path>
            <path d="M47.7761265,91.6975525 C46.8750377,91.712765 46.1525267,92.4475767 46.1525267,93.3487939 C46.1525267,94.2500112 46.8750377,94.9848228 47.7761265,95.0000353 L125.62403,95.0000353 C126.533513,95.0113958 127.280979,94.2852307 127.296139,93.3757996 C127.310844,92.4663685 126.587619,91.7160559 125.678254,91.6975525 C125.660178,91.6972593 125.642103,91.6972593 125.62403,91.6975525 L47.7761265,91.6975525 Z" id="b5eb4171-b419-4870-b9cb-48e35e493bb4" fill="#E6E6E6"></path>
            <path d="M47.7761265,107.187133 C46.8750895,107.202416 46.1526566,107.937206 46.1526566,108.838372 C46.1526566,109.739539 46.8750895,110.474329 47.7761265,110.489612 L125.62403,110.489612 C126.215593,110.501841 126.768495,110.196662 127.073431,109.689602 C127.378367,109.182542 127.388735,108.551092 127.10061,108.034295 C126.812485,107.517497 126.269899,107.194331 125.678254,107.187133 C125.660178,107.18684 125.642103,107.18684 125.62403,107.187133 L47.7761265,107.187133 Z" id="b4317b62-1760-4cf8-b114-3696958a8a67" fill="#E6E6E6"></path>
            <path d="M47.7761265,122.676714 C46.8750895,122.691996 46.1526566,123.426786 46.1526566,124.327953 C46.1526566,125.22912 46.8750895,125.96391 47.7761265,125.979192 L125.62403,125.979192 C126.215593,125.991422 126.768495,125.686242 127.073431,125.179182 C127.378367,124.672122 127.388735,124.040673 127.10061,123.523875 C126.812485,123.007078 126.269899,122.683911 125.678254,122.676714 C125.660178,122.676421 125.642103,122.676421 125.62403,122.676714 L47.7761265,122.676714 Z" id="ad76e78f-41a7-44a0-87c5-7c68f3e63063" fill="#E6E6E6"></path>
            <path d="M48.0559364,155.253616 C46.932576,155.26857 46.0368775,156.020011 46.0550389,156.931969 C46.0733199,157.822821 46.958573,158.541471 48.0559364,158.556099 L263.136379,158.556099 C264.259735,158.571052 265.185323,157.843928 265.204067,156.931969 C265.222249,156.020011 264.326494,155.268578 263.203169,155.253616 C263.180905,155.253323 263.158642,155.253323 263.136379,155.253616 L48.0559364,155.253616 Z" id="a20c62a3-d58f-423a-bfc7-4f2831a53e7a" fill="#E6E6E6"></path>
            <path d="M48.0559364,169.76726 C46.932576,169.782213 46.0368775,170.533655 46.0550389,171.445613 C46.0733199,172.336465 46.958573,173.055115 48.0559364,173.069743 L263.136379,173.069743 C264.259735,173.084696 265.185323,172.357571 265.204067,171.445613 C265.222249,170.533655 264.326494,169.782222 263.203169,169.76726 C263.180905,169.766967 263.158642,169.766967 263.136379,169.76726 L48.0559364,169.76726 Z" id="b339e3e9-0bf0-431c-bdc4-4a1671822a7b" fill="#E6E6E6"></path>
            <path d="M48.0559364,184.280903 C46.932576,184.295857 46.0368775,185.047299 46.0550389,185.959257 C46.0733199,186.850109 46.958573,187.568758 48.0559364,187.583386 L263.136379,187.583386 C264.259735,187.59834 265.185323,186.871215 265.204067,185.959257 C265.222249,185.047299 264.326494,184.295866 263.203169,184.280903 C263.180905,184.28061 263.158642,184.28061 263.136379,184.280903 L48.0559364,184.280903 Z" id="bab9b888-deda-4f86-84ee-5631e8d8031a" fill="#E6E6E6"></path>
            <path d="M48.0559364,198.794547 C46.932576,198.809501 46.0368775,199.560942 46.0550389,200.4729 C46.0733199,201.363752 46.958573,202.082402 48.0559364,202.09703 L263.136379,202.09703 C264.259735,202.111983 265.185323,201.384859 265.204067,200.4729 C265.222249,199.560942 264.326494,198.809509 263.203169,198.794547 C263.180905,198.794254 263.158642,198.794254 263.136379,198.794547 L48.0559364,198.794547 Z" id="ba4803b1-6f87-4394-9362-31b3dc635e82" fill="#E6E6E6"></path>
            <path d="M48.0559364,213.308191 C46.932576,213.323144 46.0368775,214.074586 46.0550389,214.986544 C46.0733199,215.877396 46.958573,216.596046 48.0559364,216.610674 L263.136379,216.610674 C264.259735,216.625627 265.185323,215.898502 265.204067,214.986544 C265.222249,214.074586 264.326494,213.323153 263.203169,213.308191 C263.180905,213.307898 263.158642,213.307898 263.136379,213.308191 L48.0559364,213.308191 Z" id="b9a1750e-efcd-4183-b5b9-e97a203cae9b" fill="#E6E6E6"></path>
            <path d="M48.0559364,227.821834 C46.932576,227.836788 46.0368775,228.58823 46.0550389,229.500188 C46.0733199,230.39104 46.958573,231.109689 48.0559364,231.124317 L263.136379,231.124317 C264.259735,231.139271 265.185323,230.412146 265.204067,229.500188 C265.222249,228.58823 264.326494,227.836797 263.203169,227.821834 C263.180905,227.821541 263.158642,227.821541 263.136379,227.821834 L48.0559364,227.821834 Z" id="a27b2d6d-7ecd-44cf-acba-3e7ac71f51d4" fill="#E6E6E6"></path>
            <path d="M48.0559364,242.335478 C46.932576,242.350432 46.0368775,243.101873 46.0550389,244.013831 C46.0733199,244.904683 46.958573,245.623333 48.0559364,245.637961 L263.136379,245.637961 C264.259735,245.652914 265.185323,244.92579 265.204067,244.013831 C265.222249,243.101873 264.326494,242.35044 263.203169,242.335478 C263.180905,242.335185 263.158642,242.335185 263.136379,242.335478 L48.0559364,242.335478 Z" id="befd801f-fd34-4cb7-a0c2-8d98396e21e0" fill="#E6E6E6"></path>
            <ellipse id="Oval" fill="#E6E6E6" transform="translate(31.226281, 271.404763) rotate(-0.091960) translate(-31.226281, -271.404763) " cx="31.2262811" cy="271.404763" rx="30.7865169" ry="2.34812283"></ellipse>
            <path d="M27.6440887,184.106511 L26.2759931,192.273897 C26.0399965,193.682764 25.1713507,194.905777 23.9188368,195.592662 C22.6663229,196.279547 21.168097,196.354539 19.8532527,195.79616 L19.8532527,195.79616 C18.6796928,195.29778 17.7613388,194.340666 17.3118702,193.147517 C16.8624015,191.954368 16.9210112,190.629225 17.4740619,189.480416 L20.6792506,182.822533 L25.3446657,151.118398 L33.9445494,153.427096 L27.6440887,184.106511 Z" id="Path" fill="#FFB8B8"></path>
            <polygon id="Path" fill="#FFB8B8" points="20.940549 254.896087 14.1565201 256.07697 19.8960064 209.947772 30.9320931 210.88764"></polygon>
            <polygon id="Path" fill="#FFB8B8" points="49.2549085 254.850787 42.4708796 256.031669 48.210366 209.902472 59.2464526 210.8419"></polygon>
            <circle id="Oval" fill="#FFB8B8" cx="44.0653133" cy="118.152433" r="8.51342189"></circle>
            <polygon id="Path" fill="#FFB8B8" points="44.8502376 134.814157 35.0205425 133.89408 36.4002183 118.681583 47.8664366 118.663111"></polygon>
            <path d="M61.1278827,216.68917 L16.8927773,211.3781 C17.8536333,202.977414 19.2928062,195.379729 21.4031516,188.908865 C24.5580175,179.235301 29.212908,172.079983 36.0122334,168.524848 L35.9998396,160.802767 L32.3071465,137.234708 C32.0479998,135.580743 32.5246465,133.896128 33.6119512,132.62313 C34.6992558,131.350132 36.2886072,130.61591 37.9627484,130.613223 L45.546633,131.303061 L55.1042851,142.767155 C57.8313548,146.038186 59.0792796,150.293938 58.5505102,154.519688 L55.2207285,181.130194 L61.1278827,216.68917 Z" id="Path" fill="#2F2E41"></path>
            <path d="M35.996286,156.921366 L22.2810027,152.190819 L27.7926248,136.210964 C28.5764893,133.938324 30.5770961,132.303616 32.9603616,131.988373 L32.9603616,131.988373 C35.0240343,131.715385 37.0903895,132.471714 38.4902152,134.012413 C39.8900409,135.553113 40.4453703,137.682307 39.9763537,139.710432 L35.996286,156.921366 Z" id="Path" fill="#2F2E41"></path>
            <path d="M26.3610078,271.18668 C20.7325904,271.042722 22.0662623,271.826309 20.7325904,271.042722 C16.7873159,268.724704 15.1666521,265.868366 14.6496541,271.754493 L12.5440059,271.991875 C10.684729,265.679192 11.2084604,260.852838 13.690355,257.247842 L14.3871067,253.970679 L21.1724286,253.491786 C21.7734122,259.824687 24.5300193,264.869722 27.5477973,267.068416 C27.8902555,267.312177 28.1608362,267.643572 28.3311778,268.027864 L28.3311778,268.027864 C28.6252133,268.709938 28.5661299,269.492835 28.1730585,270.123055 C27.7799872,270.753275 27.1028895,271.150713 26.3610078,271.18668 L26.3610078,271.18668 Z" id="Path" fill="#2F2E41"></path>
            <path d="M54.6753102,271.141234 C49.0468928,270.997277 50.3805647,271.780864 49.0468928,270.997277 C45.1016183,268.679259 43.4809544,265.822943 42.9639565,271.709048 L40.8583083,271.946429 C38.9990357,265.633746 39.5227628,260.807393 42.0046618,257.202397 L42.7014091,253.925234 L49.4867266,253.446332 C50.0877102,259.779233 52.8443173,264.824268 55.8620996,267.022962 C56.2045554,267.266724 56.4751342,267.598119 56.6454758,267.98241 L56.6454758,267.98241 C56.9395193,268.664484 56.8804403,269.447386 56.4873687,270.077609 C56.094297,270.707832 55.4171952,271.105271 54.6753102,271.141234 L54.6753102,271.141234 Z" id="Path" fill="#2F2E41"></path>
            <path d="M49.7224985,116.120699 L54.0599625,113.991459 L54.0591181,113.465159 C54.0517557,108.878632 50.5424402,105.125307 46.1298088,104.984516 L46.1298088,104.984516 C46.1298088,104.984516 37.2335697,100.04328 31.1184967,108.276914 C25.0034236,116.510548 28.2969872,130.745737 28.2969872,130.745737 L37.4703664,129.326997 L37.9928576,126.220339 L39.5296106,129.136002 L44.8914211,128.862112 C44.8914211,128.862112 45.8540627,122.577418 45.6425506,119.575949 C45.3292362,115.129892 48.8053594,115.208032 49.7224985,116.120699 Z" id="Path" fill="#2F2E41"></path>
            <path d="M56.6397715,190.488028 L57.8813477,198.675606 C58.0955189,200.087954 57.6506176,201.520561 56.6740642,202.563126 C55.6975108,203.60569 54.2970223,204.143215 52.8737008,204.02175 L52.8737008,204.02175 C51.6033164,203.913339 50.4327039,203.289552 49.6342382,202.295529 C48.8357726,201.301505 48.479079,200.023924 48.6471519,198.760049 L49.6212109,191.435307 L44.1884506,159.853619 L53.0797946,159.371344 L56.6397715,190.488028 Z" id="Path" fill="#FFB8B8"></path>
            <path d="M54.9540557,160.772346 L40.4459053,160.795629 L40.4187653,143.891993 C40.4149099,141.487973 41.76963,139.288102 43.9181274,138.209545 L43.9181274,138.209545 C45.7785128,137.275594 47.9786206,137.313293 49.8059168,138.310432 C51.6332131,139.307571 52.8553829,141.137379 53.0766104,143.207248 L54.9540557,160.772346 Z" id="Path" fill="#2F2E41"></path>
            <path d="M105.594665,66.4968664 C105.459969,66.4978347 105.326563,66.470566 105.203061,66.4167952 C104.854488,66.2695366 104.627674,65.9282041 104.626948,65.5498029 L104.152847,1.34588536 C104.148277,0.819089139 104.570982,0.38798458 105.097767,0.382227801 L143.947668,-2.09359913e-06 C144.474466,-0.00457027682 144.905571,0.418135444 144.91133,0.944921766 L145.385437,65.1488393 C145.38915,65.5262378 145.170153,65.8704034 144.826694,66.0268615 C144.483234,66.1833197 144.079833,66.1226782 143.797553,65.8721553 L143.797707,65.8721553 L125.061305,49.2432756 C124.939379,49.1338706 124.754087,49.1356933 124.634336,49.2474758 L106.228555,66.2417518 C106.056499,66.4029126 105.830393,66.4939018 105.594665,66.4968664 Z" id="Path" fill="#333333"></path>
            <path d="M131.594789,22.1538544 L125.795098,22.2930094 L125.655938,16.4932695 C125.641413,15.801145 125.258025,15.1695801 124.650698,14.8373134 C124.043371,14.5050467 123.304759,14.5227688 122.714067,14.8837806 C122.123374,15.2447923 121.770716,15.8940179 121.789402,16.5860424 L121.928562,22.3857824 L116.128822,22.5249419 C115.062282,22.5521176 114.219246,23.4379202 114.244838,24.5044988 C114.27043,25.5710775 115.154979,26.4154281 116.221595,26.3914205 L122.021335,26.2522611 L122.16049,32.052001 C122.189257,33.1173696 123.074555,33.9586437 124.140005,33.9330795 C125.205455,33.9075152 126.049387,33.0247504 126.027026,31.9592281 L125.887866,26.1594881 L131.687558,26.020333 C132.378955,26.0047843 133.009419,25.6211998 133.341044,25.0143252 C133.672669,24.4074507 133.654967,23.6696779 133.294619,23.0794059 C132.934271,22.4891339 132.286136,22.1362268 131.594789,22.1538544 L131.594789,22.1538544 Z" id="Path" fill="#FFFFFF"></path>
        </g>
    </g>
</svg>