<?xml version="1.0" encoding="UTF-8"?>
<svg width="24px" height="24px" viewBox="0 0 24 24" version="1.1" xmlns="http://www.w3.org/2000/svg" xmlns:xlink="http://www.w3.org/1999/xlink">
    <title>Icon / Android / History / in Bars, Lists (24pt)</title>
    <g id="Icon-/-Android-/-History-/-in-Bars,-Lists-(24pt)" stroke="none" stroke-width="1" fill="none" fill-rule="evenodd">
        <g id="round-history-24px">
            <polygon id="Path" points="0 0 24 0 24 24 0 24"></polygon>
            <path d="M13.26,3 C8.17,2.86 4,6.95 4,12 L2.21,12 C1.76,12 1.54,12.54 1.86,12.85 L4.65,15.65 C4.85,15.85 5.16,15.85 5.36,15.65 L8.15,12.85 C8.46,12.54 8.24,12 7.79,12 L6,12 C6,8.1 9.18,4.95 13.1,5 C16.82,5.05 19.95,8.18 20,11.9 C20.05,15.81 16.9,19 13,19 C11.39,19 9.9,18.45 8.72,17.52 C8.32,17.21 7.76,17.24 7.4,17.6 C6.98,18.02 7.01,18.73 7.48,19.09 C9,20.29 10.91,21 13,21 C18.05,21 22.14,16.83 22,11.74 C21.87,7.05 17.95,3.13 13.26,3 Z M12.75,8 C12.34,8 12,8.34 12,8.75 L12,12.43 C12,12.78 12.19,13.11 12.49,13.29 L15.61,15.14 C15.97,15.35 16.43,15.23 16.64,14.88 C16.85,14.52 16.73,14.06 16.38,13.85 L13.5,12.14 L13.5,8.74 C13.5,8.34 13.16,8 12.75,8 Z" id="Shape" fill="#010101" fill-rule="nonzero"></path>
        </g>
    </g>
</svg>