<?xml version="1.0" encoding="UTF-8"?>
<svg width="24px" height="24px" viewBox="0 0 24 24" version="1.1" xmlns="http://www.w3.org/2000/svg" xmlns:xlink="http://www.w3.org/1999/xlink">
    <title>63133805-BD79-4767-9D2C-CCB27CCB8DFD@1.00x</title>
    <g id="Symbols" stroke="none" stroke-width="1" fill="none" fill-rule="evenodd">
        <g id="Icon-/-Android-/-Shopping-List-/-in-Bars,-Lists-(24pt)" fill="#010101" fill-rule="nonzero">
            <path d="M13.17,2 C13.7,2 14.21,2.21 14.59,2.59 L14.59,2.59 L19.41,7.42 C19.79,7.79 20,8.3 20,8.83 L20,8.83 L20,20 C20,21.1 19.1,22 18,22 L18,22 L5.99,22 C4.89,22 4,21.1 4,20 L4,20 L4,4 C4,2.9 4.9,2 6,2 L6,2 Z M16,17 L11,17 C10.4477153,17 10,17.4477153 10,18 C10,18.5522847 10.4477153,19 11,19 L11,19 L16,19 C16.5522847,19 17,18.5522847 17,18 C17,17.4477153 16.5522847,17 16,17 L16,17 Z M8,17 C7.44771525,17 7,17.4477153 7,18 C7,18.5522847 7.44771525,19 8,19 C8.55228475,19 9,18.5522847 9,18 C9,17.4477153 8.55228475,17 8,17 Z M16,13 L11,13 C10.4477153,13 10,13.4477153 10,14 C10,14.5522847 10.4477153,15 11,15 L11,15 L16,15 C16.5522847,15 17,14.5522847 17,14 C17,13.4477153 16.5522847,13 16,13 L16,13 Z M8,13 C7.44771525,13 7,13.4477153 7,14 C7,14.5522847 7.44771525,15 8,15 C8.55228475,15 9,14.5522847 9,14 C9,13.4477153 8.55228475,13 8,13 Z M16,9 L11,9 C10.4477153,9 10,9.44771525 10,10 C10,10.5522847 10.4477153,11 11,11 L11,11 L16,11 C16.5522847,11 17,10.5522847 17,10 C17,9.44771525 16.5522847,9 16,9 L16,9 Z M8,9 C7.44771525,9 7,9.44771525 7,10 C7,10.5522847 7.44771525,11 8,11 C8.55228475,11 9,10.5522847 9,10 C9,9.44771525 8.55228475,9 8,9 Z" id="Shape"></path>
        </g>
    </g>
</svg>