<?xml version="1.0" encoding="UTF-8"?>
<svg width="328px" height="274px" viewBox="0 0 328 274" version="1.1" xmlns="http://www.w3.org/2000/svg" xmlns:xlink="http://www.w3.org/1999/xlink">
    <title>Illustration / Empty Grocery List</title>
    <g id="Illustration-/-Empty-Grocery-List" stroke="none" stroke-width="1" fill="none" fill-rule="evenodd">
        <g id="undraw_shopping_app_flsj" fill-rule="nonzero">
            <path d="M135.150815,64.4107267 L133.661551,64.4107267 L133.661551,23.6127717 C133.661559,17.3502652 131.173789,11.3442531 126.745524,6.91599639 C122.317259,2.48773972 116.311242,-2.58953353e-14 110.048735,-2.58953353e-14 L23.612816,-2.58953353e-14 C17.3503082,-2.58953353e-14 11.3442903,2.48774073 6.91602512,6.915999 C2.48775993,11.3442573 2.58953353e-14,17.3502713 2.58953353e-14,23.6127791 L2.58953353e-14,247.4335 C2.58953353e-14,253.696006 2.48776546,259.702017 6.91603012,264.130272 C11.3442948,268.558528 17.3503105,271.046268 23.612816,271.046268 L110.048735,271.046268 C116.311242,271.046268 122.317258,268.558527 126.745523,264.130271 C131.173787,259.702014 133.661558,253.696003 133.661551,247.433497 L133.661551,93.451396 L135.150815,93.451396 L135.150815,64.4107267 Z" id="Path" fill="#E6E6E6"></path>
            <path d="M111.001527,6.14323315 L99.7187705,6.14323315 C100.772432,8.72648619 100.471037,11.6647538 98.9148771,13.9803023 C97.358717,16.2958508 94.7519953,17.684828 91.9621209,17.6850397 L42.4440532,17.6850397 C39.6541782,17.6848292 37.0474554,16.2958526 35.4912944,13.9803038 C33.9351335,11.6647551 33.633738,8.72648679 34.6873999,6.14323315 L24.1492918,6.14323315 C19.472534,6.14323315 14.9873214,8.00105476 11.6803498,11.3080174 C8.37337818,14.61498 6.51553162,19.1001876 6.51553162,23.7769453 L6.51553162,247.269308 C6.51553162,251.94607 8.37336959,256.431284 11.6803417,259.738252 C14.9873139,263.04522 19.4725299,264.903046 24.1492918,264.903046 L111.001527,264.903046 C115.678289,264.903046 120.163505,263.04522 123.470477,259.738252 C126.77745,256.431284 128.635287,251.94607 128.635287,247.269308 L128.635287,23.7769453 C128.635287,19.1001876 126.777441,14.61498 123.470469,11.3080174 C120.163498,8.00105476 115.678285,6.14323315 111.001527,6.14323315 Z" id="Path" fill="#FFFFFF"></path>
            <path d="M41.9871064,51.5767922 L36.8014264,51.5767922 C36.4217214,51.5767922 36.1139081,51.8846054 36.1139081,52.2643105 L36.1139081,54.5404568 C36.1139081,54.9201619 36.4217214,55.2279731 36.8014264,55.2279751 L37.6607679,55.2279751 L37.6607679,58.6384253 L41.1277612,58.6384253 L41.1277612,55.2279751 L41.9871064,55.2279751 C42.3668108,55.2279731 42.674621,54.9201613 42.674621,54.5404568 L42.674621,52.2643105 C42.674621,51.884606 42.3668108,51.5767922 41.9871064,51.5767922 L41.9871064,51.5767922 Z" id="Path" fill="#E6E6E6"></path>
            <path d="M47.1811194,72.408098 C44.0052498,67.7609398 42.381686,62.2278484 42.543011,56.6014641 C42.5489664,56.3337892 42.3653525,56.0990428 42.1041226,56.040355 L42.1041226,55.0568389 L36.6273574,55.0568389 L36.6273574,56.0266847 L36.5518952,56.0266847 C36.2415313,56.0270883 35.9902585,56.2790144 35.9906606,56.5893783 C35.9906754,56.6030302 35.9911901,56.6166648 35.9922046,56.6302823 C36.4236723,62.644832 34.9667084,68.0385606 31.6213128,72.8114678 C31.4288017,73.0857605 31.3304511,73.4150948 31.3410242,73.7500354 L31.9398791,92.2743968 C31.9697834,93.1328562 32.6708139,93.8152971 33.5297668,93.8221247 L45.9173923,93.8221247 C46.7869032,93.8150439 47.4924663,93.1164972 47.5082366,92.2471005 L47.7390112,74.2614605 C47.745848,73.6013142 47.55123,72.9547771 47.1811194,72.408098 Z" id="Path" fill="#E6E6E6"></path>
            <path d="M45.22013,78.5613078 L34.4376693,78.5613078 C34.1146768,78.5613078 33.8077919,78.7023658 33.5974815,78.9475059 C33.3871711,79.192646 33.2944137,79.5174119 33.3435307,79.8366479 L34.972915,90.4276534 L44.3290633,90.4276534 L46.3081814,79.8723327 C46.3688767,79.5486531 46.2823085,79.2147549 46.0719925,78.961339 C45.8616766,78.7079231 45.5494511,78.5613078 45.22013,78.5613078 Z" id="Path" fill="#FFFFFF"></path>
            <path d="M99.7137323,107.068841 L94.5280523,107.068841 C94.1483479,107.068841 93.8405341,107.376651 93.8405341,107.756355 L93.8405341,110.032505 C93.8405341,110.41221 94.1483473,110.720021 94.5280523,110.720024 L95.3873939,110.720024 L95.3873939,114.13047 L98.8543871,114.13047 L98.8543871,110.720016 L99.7137323,110.720016 C100.093437,110.720014 100.401247,110.412202 100.401247,110.032498 L100.401247,107.756348 C100.401247,107.376647 100.093433,107.068841 99.7137323,107.068841 L99.7137323,107.068841 Z" id="Path" fill="#E6E6E6"></path>
            <path d="M104.907745,127.900146 C101.731876,123.252988 100.108312,117.719897 100.269637,112.093512 C100.275593,111.825839 100.091981,111.591093 99.8307523,111.532403 L99.8307523,110.548887 L94.3539833,110.548887 L94.3539833,111.518733 L94.2785212,111.518733 C94.1294788,111.518926 93.9866176,111.578318 93.8813655,111.683844 C93.7761135,111.789369 93.7170925,111.932384 93.7172866,112.081427 C93.7173038,112.095074 93.7178185,112.108708 93.7188305,112.122331 C94.1502983,118.136875 92.6933344,123.530604 89.3479387,128.303516 C89.1554291,128.57781 89.0570786,128.907143 89.0676502,129.242084 L89.666505,147.766445 C89.6964076,148.624905 90.3974396,149.307346 91.2563927,149.314169 L103.644018,149.314169 C104.513529,149.307089 105.219092,148.608542 105.234863,147.739145 L105.465641,129.753505 C105.472475,129.09336 105.277855,128.446825 104.907745,127.900146 L104.907745,127.900146 Z" id="Path" fill="#E6E6E6"></path>
            <path d="M102.946756,134.053353 L92.1643063,134.053353 C91.8413131,134.053353 91.5344274,134.194411 91.3241169,134.439552 C91.1138064,134.684693 91.0210495,135.00946 91.0701677,135.328696 L92.6995521,145.919698 L102.0557,145.919698 L104.034822,135.364381 C104.095505,135.040702 104.008932,134.70681 103.798618,134.453397 C103.588304,134.199983 103.276085,134.053353 102.946767,134.053353 L102.946756,134.053353 Z" id="Path" fill="#FFFFFF"></path>
            <path d="M34.6967117,185.5183 L32.2369075,185.5183 C32.0567958,185.5183 31.9107839,185.664308 31.9107839,185.84442 L31.9107839,186.924086 C31.9107839,187.104198 32.0567958,187.250206 32.2369075,187.250206 L32.6445324,187.250206 L32.6445324,188.867941 L34.2890868,188.867941 L34.2890868,187.250206 L34.6967117,187.250206 C34.8768228,187.250206 35.0228316,187.104197 35.0228316,186.924086 L35.0228316,185.84442 C35.0228316,185.664308 34.8768228,185.5183 34.6967117,185.5183 Z" id="Path" fill="#E6E6E6"></path>
            <path d="M37.1604756,195.39954 C35.6540157,193.19518 34.8838863,190.570581 34.9604119,187.901729 C34.9632347,187.774759 34.8761373,187.66341 34.7522242,187.635573 L34.7522242,187.169059 L32.1543423,187.169059 L32.1543423,187.629102 L32.1185468,187.629102 C32.0478489,187.629194 31.9800832,187.657366 31.9301574,187.707422 C31.8802316,187.757479 31.8522353,187.825317 31.8523275,187.896015 C31.8523275,187.902487 31.8525737,187.908953 31.8530662,187.915415 C32.0928443,190.638715 31.3581139,193.35871 29.7797516,195.590892 C29.6884367,195.720999 29.6417855,195.877214 29.6468008,196.036089 L29.9308459,204.823043 C29.9450292,205.230249 30.2775613,205.553962 30.6850021,205.557197 L36.5610186,205.557197 C36.9734726,205.553847 37.3081616,205.222492 37.3156403,204.810092 L37.4251066,196.278683 C37.4283539,195.965543 37.3360384,195.658857 37.1604756,195.39954 Z" id="Path" fill="#E6E6E6"></path>
            <rect id="Rectangle" fill="#FFFFFF" x="30.7081209" y="198.62956" width="5.60667982" height="2.80333991"></rect>
            <path d="M46.1471622,185.5183 L43.6873579,185.5183 C43.5072463,185.5183 43.3612343,185.664308 43.3612343,185.84442 L43.3612343,186.924086 C43.3612343,187.104198 43.5072463,187.250206 43.6873579,187.250206 L44.0949829,187.250206 L44.0949829,188.867941 L45.7395372,188.867941 L45.7395372,187.250206 L46.1471622,187.250206 C46.3272732,187.250206 46.4732821,187.104197 46.4732821,186.924086 L46.4732821,185.84442 C46.4732821,185.664308 46.3272732,185.5183 46.1471622,185.5183 Z" id="Path" fill="#E6E6E6"></path>
            <path d="M48.610926,195.39954 C47.1044662,193.19518 46.3343367,190.570581 46.4108623,187.901729 C46.4136851,187.774759 46.3265877,187.66341 46.2026747,187.635573 L46.2026747,187.169059 L43.6047928,187.169059 L43.6047928,187.629102 L43.5689972,187.629102 C43.4982994,187.629194 43.4305337,187.657366 43.3806079,187.707422 C43.3306821,187.757479 43.3026858,187.825317 43.3027779,187.896015 C43.3027779,187.902487 43.3030242,187.908953 43.3035167,187.915415 C43.5432947,190.638715 42.8085644,193.35871 41.2302021,195.590892 C41.1388871,195.720999 41.092236,195.877214 41.0972513,196.036089 L41.3812963,204.823043 C41.3954797,205.230249 41.7280118,205.553962 42.1354525,205.557197 L48.0114691,205.557197 C48.4239231,205.553847 48.7586121,205.222492 48.7660907,204.810092 L48.875557,196.278683 C48.8788044,195.965543 48.7864888,195.658857 48.610926,195.39954 Z" id="Path" fill="#E6E6E6"></path>
            <rect id="Rectangle" fill="#FFFFFF" x="42.1585714" y="198.62956" width="5.60667982" height="2.80333991"></rect>
            <path d="M57.5976126,185.5183 L55.1378084,185.5183 C54.9576967,185.5183 54.8116848,185.664308 54.8116848,185.84442 L54.8116848,186.924086 C54.8116848,187.104198 54.9576967,187.250206 55.1378084,187.250206 L55.5454333,187.250206 L55.5454333,188.867941 L57.1899877,188.867941 L57.1899877,187.250206 L57.5976126,187.250206 C57.7777237,187.250206 57.9237325,187.104197 57.9237325,186.924086 L57.9237325,185.84442 C57.9237325,185.664308 57.7777237,185.5183 57.5976126,185.5183 Z" id="Path" fill="#E6E6E6"></path>
            <path d="M60.0613765,195.39954 C58.5549166,193.19518 57.7847872,190.570581 57.8613128,187.901729 C57.8641356,187.774759 57.7770382,187.66341 57.6531251,187.635573 L57.6531251,187.169059 L55.0552432,187.169059 L55.0552432,187.629102 L55.0194477,187.629102 C54.9487498,187.629194 54.8809841,187.657366 54.8310583,187.707422 C54.7811325,187.757479 54.7531362,187.825317 54.7532284,187.896015 C54.7532284,187.902487 54.7534746,187.908953 54.7539671,187.915415 C54.9937452,190.638715 54.2590148,193.35871 52.6806525,195.590892 C52.5893376,195.720999 52.5426864,195.877214 52.5477017,196.036089 L52.8317468,204.823043 C52.8459301,205.230249 53.1784622,205.553962 53.585903,205.557197 L59.4619195,205.557197 C59.8743735,205.553847 60.2090625,205.222492 60.2165412,204.810092 L60.3260075,196.278683 C60.3292548,195.965543 60.2369393,195.658857 60.0613765,195.39954 Z" id="Path" fill="#E6E6E6"></path>
            <rect id="Rectangle" fill="#FFFFFF" x="53.6090218" y="198.62956" width="5.60667982" height="2.80333991"></rect>
            <path d="M90.705024,164.050607 L85.5193514,164.050607 C85.3370105,164.050607 85.1621375,164.12304 85.0332027,164.251974 C84.9042679,164.380908 84.8318331,164.555781 84.8318331,164.738122 L84.8318331,167.014272 C84.8318331,167.393978 85.1396455,167.70179 85.5193514,167.70179 L86.3786929,167.70179 L86.3786929,171.112237 L89.8456861,171.112237 L89.8456861,167.70179 L90.7050277,167.70179 C91.0847321,167.701788 91.3925423,167.393976 91.3925423,167.014272 L91.3925423,164.738122 C91.3925423,164.555781 91.3201074,164.380908 91.1911726,164.251974 C91.0622378,164.12304 90.8873648,164.050607 90.705024,164.050607 Z" id="Path" fill="#E6E6E6"></path>
            <path d="M95.8990369,184.881913 C92.7231674,180.234755 91.0996036,174.701664 91.2609286,169.075279 C91.2668844,168.807605 91.0832723,168.572859 90.8220439,168.51417 L90.8220439,167.530654 L85.345275,167.530654 L85.345275,168.5005 L85.2698128,168.5005 C85.1207705,168.500693 84.9779092,168.560085 84.8726572,168.66561 C84.7674051,168.771136 84.7083841,168.914151 84.7085782,169.063193 C84.7085954,169.07684 84.7091101,169.090475 84.7101222,169.104097 C85.1415899,175.118642 83.684626,180.512371 80.3392304,185.285283 C80.1467207,185.559576 80.0483703,185.88891 80.0589418,186.223851 L80.6577967,204.748212 C80.6876992,205.606673 81.3887335,206.289114 82.247688,206.295936 L94.6353098,206.295936 C95.5048222,206.288857 96.2103876,205.59031 96.2261578,204.720912 L96.4569324,186.735272 C96.4637679,186.075126 96.2691486,185.428591 95.8990369,184.881913 L95.8990369,184.881913 Z" id="Path" fill="#E6E6E6"></path>
            <path d="M93.9380513,191.035119 L83.1555868,191.035119 C82.8325936,191.035119 82.525708,191.176178 82.3153974,191.421319 C82.1050869,191.66646 82.01233,191.991226 82.0614483,192.310463 L83.6908363,202.901465 L93.0469846,202.901465 L95.0261026,192.346148 C95.0867853,192.02247 95.0002126,191.688578 94.7898994,191.435165 C94.5795862,191.181752 94.2673686,191.035119 93.9380513,191.035119 L93.9380513,191.035119 Z" id="Path" fill="#FFFFFF"></path>
            <path d="M93.536037,96.206862 L62.6243604,96.206862 C64.7855184,84.5224677 64.288314,70.4131636 62.6243604,55.2395807 L93.536037,55.2395807 C91.9163413,70.4132116 91.4323455,84.5224936 93.536037,96.206862 Z" id="Path" fill="#E6E6E6"></path>
            <circle id="Oval" fill="#FFFFFF" cx="78.2664144" cy="74.6059307" r="7.44859559"></circle>
            <path d="M65.2313694,150.58162 L34.3196927,150.58162 C36.480847,138.897222 35.9836463,124.787918 34.3196927,109.614335 L65.2313694,109.614335 C63.6116847,124.787969 63.1276778,138.897248 65.2313694,150.58162 Z" id="Path" fill="#E6E6E6"></path>
            <circle id="Oval" fill="#FFFFFF" cx="49.9617468" cy="128.980688" r="7.44859559"></circle>
            <path d="M111.040241,98.813871 L80.1285642,98.813871 C82.2897186,87.1294768 81.7925178,73.0201726 80.1285642,57.8465897 L111.040241,57.8465897 C109.420541,73.0202206 108.936549,87.1295026 111.040241,98.813871 Z" id="Path" fill="#E6E6E6"></path>
            <circle id="Oval" fill="#FFFFFF" cx="95.7706146" cy="77.2129397" r="7.44859559"></circle>
            <path d="M111.040241,96.9517249 L80.1285642,96.9517249 C82.2897186,85.2673269 81.7925178,71.1580228 80.1285642,55.9844399 L111.040241,55.9844399 C109.420541,71.1580708 108.936549,85.2673491 111.040241,96.9517249 Z" id="Path" fill="#E6E6E6"></path>
            <circle id="Oval" fill="#FFFFFF" cx="95.7706146" cy="75.3507936" r="7.44859559"></circle>
            <path d="M111.040241,98.813871 L80.1285642,98.813871 C82.2897186,87.1294768 81.7925178,73.0201726 80.1285642,57.8465897 L111.040241,57.8465897 C109.420541,73.0202206 108.936549,87.1295026 111.040241,98.813871 Z" id="Path" fill="#E6E6E6"></path>
            <circle id="Oval" fill="#FFFFFF" cx="95.7706146" cy="77.2129397" r="7.44859559"></circle>
            <rect id="Rectangle" fill="#E6E6E6" x="16.8154888" y="93.9722844" width="101.30092" height="11.1728952"></rect>
            <rect id="Rectangle" fill="#E6E6E6" x="16.8154888" y="149.464333" width="101.30092" height="11.1728952"></rect>
            <rect id="Rectangle" fill="#E6E6E6" x="16.8154888" y="204.956377" width="101.30092" height="11.1728952"></rect>
            <path d="M294.33367,250.284278 L269.096585,232.434308 C277.608174,224.14283 285.349672,212.336525 292.753175,198.987572 L317.990256,216.837542 C307.90587,228.290386 299.36331,239.530082 294.33367,250.284278 Z" id="Path" fill="#333333"></path>
            <circle id="Oval" fill="#FFFFFF" cx="294.340633" cy="223.83127" r="7.44859559"></circle>
            <path d="M172.592414,168.830683 L169.822144,168.830683 C169.6193,168.830683 169.454862,168.995121 169.454862,169.197965 L169.454862,170.413929 C169.454862,170.511338 169.493557,170.604758 169.562436,170.673636 C169.631315,170.742514 169.724735,170.781209 169.822144,170.781208 L170.281215,170.781208 L170.281215,172.603119 L172.133333,172.603119 L172.133333,170.781208 L172.592403,170.781208 C172.795246,170.781208 172.959686,170.616772 172.959686,170.413929 L172.959686,169.197965 C172.959686,168.995126 172.795254,168.830683 172.592414,168.830683 Z" id="Path" fill="#E6E6E6"></path>
            <path d="M175.367132,179.959062 C173.67054,177.476483 172.803214,174.520627 172.889402,171.514934 C172.89258,171.37194 172.794492,171.246537 172.654941,171.215184 L172.654941,170.689774 L169.729166,170.689774 L169.729166,171.207881 L169.688853,171.207881 C169.609233,171.207984 169.532915,171.239712 169.476689,171.296085 C169.420462,171.352458 169.388932,171.428858 169.389036,171.508478 C169.389036,171.515769 169.389311,171.523053 169.38986,171.53033 C169.659901,174.597345 168.832438,177.660638 167.054866,180.174548 C166.952027,180.321076 166.899487,180.497008 166.905134,180.675934 L167.225049,190.571912 C167.241025,191.030513 167.615526,191.395083 168.074392,191.39873 L174.692035,191.39873 C175.156542,191.39495 175.533466,191.021775 175.541888,190.557329 L175.665169,180.949145 C175.668819,180.596488 175.56485,180.251102 175.367132,179.959062 Z" id="Path" fill="#333333"></path>
            <path d="M172.014916,169.226887 C172.014916,169.664515 171.660149,170.019282 171.222521,170.019282 C170.784893,170.019282 170.430126,169.664515 170.430126,169.226887" id="Path" fill="#000000" opacity="0.2"></path>
            <rect id="Rectangle" fill="#FFFFFF" x="168.491764" y="181.865728" width="5.58644946" height="3.72429964"></rect>
            <path d="M260.25854,207.490237 L255.072864,207.490237 C254.693158,207.490237 254.385342,207.798048 254.385342,208.177755 L254.385342,210.453905 C254.385342,210.83361 254.693159,211.14142 255.072864,211.14142 L255.932206,211.14142 L255.932206,214.55187 L259.399199,214.55187 L259.399199,211.14142 L260.25854,211.14142 C260.638244,211.14142 260.946055,210.833609 260.946055,210.453905 L260.946055,208.177755 C260.946055,207.79805 260.638245,207.490237 260.25854,207.490237 L260.25854,207.490237 Z" id="Path" fill="#E6E6E6"></path>
            <path d="M265.452553,228.321546 C262.276683,223.674387 260.653119,218.141294 260.814445,212.514908 C260.820402,212.247235 260.636789,212.01249 260.37556,211.953803 L260.37556,210.970283 L254.898791,210.970283 L254.898791,211.940129 L254.823329,211.940129 C254.674287,211.940323 254.531425,211.999716 254.426173,212.105242 C254.320921,212.210768 254.261901,212.353784 254.262095,212.502826 C254.262114,212.516476 254.262629,212.530109 254.263639,212.543727 C254.695106,218.558274 253.238142,223.952004 249.892747,228.724916 C249.70024,228.999204 249.601889,229.328531 249.612458,229.663465 L250.211313,248.187826 C250.241216,249.046288 250.942249,249.728731 251.801205,249.735554 L264.188826,249.735554 C265.058337,249.728474 265.7639,249.029927 265.779671,248.16053 L266.010449,230.17489 C266.017282,229.51475 265.822663,228.868219 265.452553,228.321546 L265.452553,228.321546 Z" id="Path" fill="#333333"></path>
            <path d="M259.177515,208.231893 C259.177515,209.051093 258.513422,209.715185 257.694223,209.715185 C256.875024,209.715185 256.210932,209.051093 256.210932,208.231893" id="Path" fill="#000000" opacity="0.2"></path>
            <path d="M263.491568,234.474752 L252.709103,234.474752 C252.386111,234.474752 252.079226,234.61581 251.868916,234.86095 C251.658605,235.10609 251.565848,235.430856 251.614965,235.750092 L253.244349,246.341098 L262.600501,246.341098 L264.579619,235.785777 C264.640301,235.4621 264.553727,235.128209 264.343414,234.874797 C264.133101,234.621384 263.820884,234.474752 263.491568,234.474752 L263.491568,234.474752 Z" id="Path" fill="#FFFFFF"></path>
            <path d="M245.462937,250.255098 L214.551253,250.255098 C216.712411,238.570704 216.21521,224.4614 214.551253,209.287817 L245.462937,209.287817 C243.843252,224.461444 243.359238,238.570726 245.462937,250.255098 Z" id="Path" fill="#333333"></path>
            <circle id="Oval" fill="#FFFFFF" cx="230.193307" cy="228.654167" r="7.44859559"></circle>
            <polygon id="Path" fill="#FFB8B8" points="119.026694 121.325287 125.966036 120.694404 130.382216 109.970134 122.49655 105.553953"></polygon>
            <path d="M182.712411,150.766991 L182.712411,150.766991 C183.180467,149.599572 183.058799,148.278323 182.385417,147.216014 C181.712035,146.153704 180.569042,145.479858 179.313518,145.404989 L168.539058,144.762505 L166.952654,150.03786 L178.04438,153.084016 C179.96319,153.610987 181.971918,152.613934 182.712411,150.766991 L182.712411,150.766991 Z" id="Path" fill="#FFB8B8"></path>
            <path d="M171.143109,153.172624 L171.024567,143.273695 L147.092069,139.454947 L128.654871,118.309449 C126.671048,116.034218 123.311237,115.574785 120.789417,117.233897 L120.789417,117.233897 C119.294749,118.21724 118.313456,119.813101 118.110438,121.590678 C117.907419,123.368256 118.503606,125.144281 119.738058,126.43932 L134.948564,145.158099 L171.143109,153.172624 Z" id="Path" fill="#575A89"></path>
            <path d="M113.664381,264.530042 L119.972959,264.530042 L135.620613,193.783482 L151.831263,215.638591 L161.294137,262.952898 L167.287284,262.952898 L166.02557,212.168876 L144.891843,157.915135 L124.073531,157.915135 C118.384416,168.211117 113.921555,178.824492 119.026672,189.773435 L113.664381,264.530042 Z" id="Path" fill="#2F2E41"></path>
            <path d="M157.426884,268.827138 C157.285777,269.278675 157.34572,269.769092 157.59143,270.173349 C157.837139,270.577606 158.24487,270.856636 158.710664,270.939295 L174.147807,273.678805 C175.410138,273.909719 176.646413,273.162777 177.029183,271.937915 L177.029183,271.937915 C177.400571,270.770432 176.880013,269.504832 175.794669,268.936523 C172.400362,267.193727 169.479154,264.654031 167.281322,261.535026 C165.58468,263.114914 163.688356,262.966332 161.674665,261.802009 L159.538797,262.068993 L157.426884,268.827138 Z" id="Path" fill="#2F2E41"></path>
            <path d="M110.743434,268.827138 C110.602328,269.278675 110.662271,269.769092 110.90798,270.173349 C111.15369,270.577606 111.56142,270.856636 112.027214,270.939295 L127.464357,273.678805 C128.726688,273.909719 129.962964,273.162777 130.345734,271.937915 L130.345734,271.937915 C130.717122,270.770432 130.196563,269.504832 129.11122,268.936523 C125.716913,267.193727 122.795705,264.654031 120.597873,261.535026 C118.90123,263.114914 117.004906,262.966332 114.991215,261.802009 L112.855348,262.068993 L110.743434,268.827138 Z" id="Path" fill="#2F2E41"></path>
            <circle id="Oval" fill="#FFB8B8" cx="130.539819" cy="105.080824" r="8.83200577"></circle>
            <path d="M122.6541,160.280849 L145.680387,159.650007 L138.918076,138.367081 C143.120532,131.630064 138.891112,124.899874 132.905522,118.171131 L128.174093,115.016846 L120.603805,114.385989 L120.603805,114.385989 C117.326155,117.893197 115.532727,122.532628 115.599164,127.332533 C115.749054,137.610812 117.568985,148.799782 122.6541,160.280849 Z" id="Path" fill="#575A89"></path>
            <path d="M175.558107,174.606704 L175.558107,174.606704 C176.447675,173.71754 176.855583,172.454957 176.654396,171.213398 C176.453209,169.97184 175.667456,168.902683 174.542614,168.339942 L164.889626,163.5107 L161.355869,167.736655 L170.35497,174.900574 C171.911768,176.139882 174.150756,176.013425 175.558107,174.606704 Z" id="Path" fill="#FFB8B8"></path>
            <path d="M163.975252,172.26714 L167.760398,163.119708 L147.259778,150.194081 L138.62753,123.500495 C137.698705,120.6283 134.790525,118.884201 131.819359,119.417486 L131.819359,119.417486 C130.05837,119.733562 128.528407,120.81472 127.64248,122.369107 C126.756553,123.923493 126.606,125.79085 127.231462,127.46709 L133.851821,150.660258 L163.975252,172.26714 Z" id="Path" fill="#575A89"></path>
            <path d="M116.0301,101.611109 C116.0301,105.047681 118.261911,110.369743 121.07696,112.651116 C122.971016,114.186097 125.474143,114.12145 126.439246,112.020259 C127.429274,109.864778 130.841926,104.798242 136.848393,101.611109 C144.855438,97.3624304 134.008844,90.0936105 126.439246,91.2019624 C120.751095,92.034835 116.0301,95.8622958 116.0301,101.611109 Z" id="Path" fill="#2F2E41"></path>
            <circle id="Oval" fill="#2F2E41" cx="121.392386" cy="90.5711054" r="6.30857396"></circle>
            <path d="M128.647248,88.363104 C128.645956,85.0641223 126.101651,82.3239387 122.811817,82.0784208 C122.968567,82.0667561 123.125242,82.05453 123.284957,82.05453 C126.769087,82.05453 129.593531,84.8789748 129.593531,88.363104 C129.593531,91.8472332 126.769087,94.6716779 123.284957,94.6716779 C123.125242,94.6716779 122.968567,94.6594518 122.811817,94.6477871 C126.101647,94.4022623 128.645948,91.6620828 128.647248,88.363104 L128.647248,88.363104 Z" id="Path" fill="#2F2E41"></path>
            <ellipse id="Oval" fill="#FFB8B8" cx="130.697532" cy="106.342542" rx="1.41942739" ry="1.89257108"></ellipse>
            <polygon id="Path" fill="#3F3D56" points="309.439559 252.960773 211.234586 252.960773 190.438721 154.652746 172.690892 154.652746 172.690892 150.241737 194.014216 150.241737 214.810081 248.549395 309.439559 248.549395"></polygon>
            <circle id="Oval" fill="#3F3D56" cx="225.625962" cy="261.468" r="9.45267189"></circle>
            <circle id="Oval" fill="#3F3D56" cx="296.205907" cy="261.468" r="9.45267189"></circle>
            <path d="M307.649033,250.883442 L212.101148,250.883442 L195.242639,167.571462 L323.469725,167.571462 C324.793871,167.571462 326.051679,168.151036 326.91231,169.157354 C327.772941,170.163672 328.150243,171.496139 327.944975,172.804277 L312.123666,247.056792 C311.7862,249.264786 309.882649,250.892664 307.649033,250.883442 L307.649033,250.883442 Z M213.138725,249.623074 L307.649033,249.623074 C309.261116,249.629837 310.634933,248.454748 310.878079,246.861092 L326.699388,172.608578 C326.847849,171.664436 326.575691,170.702611 325.954541,169.976238 C325.33339,169.249866 324.425468,168.831817 323.469725,168.831817 L196.772545,168.831817 L213.138725,249.623074 Z" id="Shape" fill="#3F3D56"></path>
            <polygon id="Path" fill="#3F3D56" points="230.675973 250.616755 219.635523 168.304269 220.87882 168.098899 231.91927 250.411386"></polygon>
            <polygon id="Path" fill="#3F3D56" points="292.064793 249.984764 290.820387 249.783088 301.538378 168.100746 302.782784 168.302422"></polygon>
            <rect id="Rectangle" fill="#3F3D56" x="261.555958" y="168.201639" width="1.26035477" height="82.3123941"></rect>
            <polygon id="Rectangle" fill="#3F3D56" transform="translate(262.679582, 191.035758) rotate(-89.861270) translate(-262.679582, -191.035758) " points="262.049403 130.035203 263.309761 130.035203 263.309761 252.036314 262.049403 252.036314"></polygon>
            <polygon id="Rectangle" fill="#3F3D56" transform="translate(261.486385, 230.188109) rotate(-0.391660) translate(-261.486385, -230.188109) " points="207.894971 229.557917 315.077799 229.557917 315.077799 230.818301 207.894971 230.818301"></polygon>
            <ellipse id="Oval" fill="#3F3D56" cx="174.581535" cy="151.817009" rx="6.93195865" ry="3.78106802"></ellipse>
        </g>
    </g>
</svg>